<svg xmlns="http://www.w3.org/2000/svg" id="Capa_1" viewBox="0 0 1080 607.8"><defs><style>      .st0 {        fill: #fff;      }    </style></defs><g id="Capa_1-2"><path id="Trazado_570" class="st0" d="M201.1,371.3c2.2,46.6,31,61.6,74.8,61.6s63.2-11.1,63.2-40.5-56.5-41.6-113.6-57.6c-56.6-16.1-115.8-41.5-115.8-114.2s87-120.3,161.3-120.3,158,38.2,158.5,127.5h-103.1c1.7-36.1-32.1-47.7-63.7-47.7s-49.9,7.8-49.9,33.8,57.1,36.1,114.7,52.1c57.1,16.1,114.7,42.6,114.7,114.2s-85.4,132.5-172.4,132.5c-90.9,0-171.3-39.9-171.8-141.4h103.1,0Z"></path><path id="Trazado_571" class="st0" d="M474.7,108.6h170.2c121.4,0,194,73.7,194,196.2s-73.7,199.5-194,199.5h-170.2V108.6ZM577.8,415.6h48.8c78.2-1.7,109.2-32.1,109.2-111.4s-38.8-107-109.2-107h-48.8v218.3Z"></path><path id="Trazado_572" class="st0" d="M874.7,232.1h94.2v272.3h-94.2V232.1Z"></path><path id="Trazado_573" class="st0" d="M973.8,155.9c0,28.7-23.3,52-52,52s-52-23.3-52-52,23.3-52,52-52,52,23.3,52,52h0Z"></path></g></svg>